<svg width="36" height="36" viewBox="0 0 36 36" fill="none" xmlns="http://www.w3.org/2000/svg">
<path d="M18.8681 2.9339L11.3769 10.4965L3.91722 18.2024C3.32975 18.799 3 19.606 3 20.4473C3 21.2885 3.32975 22.0955 3.91722 22.6922L10.6988 29.5383C10.9925 29.8324 11.389 29.9982 11.8027 30H30.7279V26.8158H19.6882L31.0749 15.3206C31.3682 15.0249 31.6008 14.6737 31.7596 14.2871C31.9183 13.9006 32 13.4862 32 13.0678C32 12.6493 31.9183 12.235 31.7596 11.8484C31.6008 11.4618 31.3682 11.1106 31.0749 10.8149L23.3313 2.9339C23.0384 2.63784 22.6905 2.40297 22.3076 2.24273C21.9247 2.08248 21.5143 2 21.0997 2C20.6852 2 20.2748 2.08248 19.8919 2.24273C19.509 2.40297 19.1611 2.63784 18.8681 2.9339ZM12.4493 26.8158L6.14093 20.4473L13.6322 12.7414L14.7992 11.5473L22.6059 19.4283L15.4143 26.6884L15.3039 26.8158H12.4493Z" fill="#EEE6D9"/>
</svg>
