<svg width="35" height="35" viewBox="0 0 35 35" fill="none" xmlns="http://www.w3.org/2000/svg">
<path d="M7.29167 29.1667C7.29167 29.9402 7.59896 30.6821 8.14594 31.2291C8.69292 31.776 9.43479 32.0833 10.2083 32.0833H24.7917C25.5652 32.0833 26.3071 31.776 26.8541 31.2291C27.401 30.6821 27.7083 29.9402 27.7083 29.1667V11.6667H30.625V8.75H24.7917V5.83334C24.7917 5.05979 24.4844 4.31792 23.9374 3.77094C23.3904 3.22396 22.6485 2.91667 21.875 2.91667H13.125C12.3515 2.91667 11.6096 3.22396 11.0626 3.77094C10.5156 4.31792 10.2083 5.05979 10.2083 5.83334V8.75H4.375V11.6667H7.29167V29.1667ZM13.125 5.83334H21.875V8.75H13.125V5.83334ZM11.6667 11.6667H24.7917V29.1667H10.2083V11.6667H11.6667Z" fill="#EEE6D9"/>
<path d="M13.125 14.5833H16.0417V26.25H13.125V14.5833ZM18.9583 14.5833H21.875V26.25H18.9583V14.5833Z" fill="#EEE6D9"/>
</svg>
