<svg width="101" height="21" viewBox="0 0 101 21" fill="none" xmlns="http://www.w3.org/2000/svg">
<path d="M40.2036 8.03164C40.1487 7.86965 40.0474 7.72731 39.9124 7.62219C39.7775 7.51707 39.6147 7.45379 39.4441 7.44014L34.4558 7.04376L32.2971 2.26539C32.2284 2.11149 32.1166 1.98077 31.9752 1.88901C31.8338 1.79726 31.6689 1.74838 31.5003 1.74829C31.3317 1.7482 31.1668 1.79689 31.0253 1.88849C30.8838 1.98009 30.7718 2.11069 30.7029 2.26451L28.5443 7.04376L23.5559 7.44014C23.3883 7.45342 23.2281 7.5147 23.0944 7.61665C22.9607 7.71861 22.8592 7.85692 22.8021 8.01504C22.7449 8.17316 22.7346 8.34439 22.7722 8.50825C22.8098 8.67211 22.8939 8.82166 23.0143 8.93901L26.7006 12.5326L25.3969 18.1781C25.3573 18.349 25.37 18.5279 25.4333 18.6915C25.4966 18.855 25.6077 18.9958 25.752 19.0955C25.8963 19.1952 26.0673 19.2493 26.2427 19.2506C26.4181 19.2519 26.5898 19.2005 26.7356 19.103L31.5 15.9268L36.2644 19.103C36.4134 19.202 36.5892 19.2529 36.7681 19.249C36.9469 19.2451 37.1203 19.1865 37.2649 19.0811C37.4094 18.9757 37.5183 18.8285 37.5767 18.6595C37.6351 18.4904 37.6404 18.3074 37.5918 18.1353L35.9914 12.5353L39.9604 8.96351C40.2203 8.72901 40.3157 8.36326 40.2036 8.03164Z" fill="#9776D3"/>
<path d="M59.8036 8.03164C59.7486 7.86965 59.6474 7.72731 59.5124 7.62219C59.3775 7.51707 59.2147 7.45379 59.0441 7.44014L54.0557 7.04376L51.8971 2.26539C51.8284 2.11149 51.7166 1.98077 51.5752 1.88901C51.4338 1.79726 51.2688 1.74838 51.1003 1.74829C50.9317 1.7482 50.7667 1.79689 50.6252 1.88849C50.4838 1.98009 50.3718 2.11069 50.3029 2.26451L48.1442 7.04376L43.1559 7.44014C42.9883 7.45342 42.828 7.5147 42.6944 7.61665C42.5607 7.71861 42.4592 7.85692 42.4021 8.01504C42.3449 8.17316 42.3345 8.34439 42.3722 8.50825C42.4098 8.67211 42.4938 8.82166 42.6142 8.93901L46.3006 12.5326L44.9969 18.1781C44.9573 18.349 44.97 18.5279 45.0333 18.6915C45.0966 18.855 45.2076 18.9958 45.352 19.0955C45.4963 19.1952 45.6672 19.2493 45.8426 19.2506C46.018 19.2519 46.1898 19.2005 46.3356 19.103L51.1 15.9268L55.8644 19.103C56.0134 19.202 56.1892 19.2529 56.3681 19.249C56.5469 19.2451 56.7203 19.1865 56.8648 19.0811C57.0094 18.9757 57.1182 18.8285 57.1767 18.6595C57.2351 18.4904 57.2404 18.3074 57.1917 18.1353L55.5914 12.5353L59.5604 8.96351C59.8203 8.72901 59.9156 8.36326 59.8036 8.03164Z" fill="#9776D3"/>
<path d="M79.4036 8.03164C79.3486 7.86965 79.2474 7.72731 79.1124 7.62219C78.9774 7.51707 78.8146 7.45379 78.6441 7.44014L73.6557 7.04376L71.4971 2.26539C71.4284 2.11149 71.3165 1.98077 71.1751 1.88901C71.0337 1.79726 70.8688 1.74838 70.7003 1.74829C70.5317 1.7482 70.3667 1.79689 70.2252 1.88849C70.0837 1.98009 69.9718 2.11069 69.9028 2.26451L67.7442 7.04376L62.7558 7.44014C62.5882 7.45342 62.428 7.5147 62.2943 7.61665C62.1606 7.71861 62.0592 7.85692 62.002 8.01504C61.9449 8.17316 61.9345 8.34439 61.9722 8.50825C62.0098 8.67211 62.0938 8.82166 62.2142 8.93901L65.9006 12.5326L64.5968 18.1781C64.5573 18.349 64.5699 18.5279 64.6333 18.6915C64.6966 18.855 64.8076 18.9958 64.9519 19.0955C65.0962 19.1952 65.2672 19.2493 65.4426 19.2506C65.618 19.2519 65.7898 19.2005 65.9356 19.103L70.7 15.9268L75.4643 19.103C75.6134 19.202 75.7892 19.2529 75.968 19.249C76.1469 19.2451 76.3203 19.1865 76.4648 19.0811C76.6094 18.9757 76.7182 18.8285 76.7766 18.6595C76.8351 18.4904 76.8404 18.3074 76.7917 18.1353L75.1913 12.5353L79.1604 8.96351C79.4202 8.72901 79.5156 8.36326 79.4036 8.03164Z" fill="#9776D3"/>
<path d="M99.0037 8.03164C98.9487 7.86965 98.8475 7.72731 98.7125 7.62219C98.5775 7.51707 98.4147 7.45379 98.2442 7.44014L93.2558 7.04376L91.0972 2.26539C91.0285 2.11149 90.9166 1.98077 90.7752 1.88901C90.6338 1.79726 90.4689 1.74838 90.3004 1.74829C90.1318 1.7482 89.9668 1.79689 89.8253 1.88849C89.6838 1.98009 89.5719 2.11069 89.5029 2.26451L87.3443 7.04376L82.3559 7.44014C82.1883 7.45342 82.0281 7.5147 81.8944 7.61665C81.7607 7.71861 81.6593 7.85692 81.6021 8.01504C81.545 8.17316 81.5346 8.34439 81.5722 8.50825C81.6099 8.67211 81.6939 8.82166 81.8143 8.93901L85.5007 12.5326L84.1969 18.1781C84.1574 18.349 84.17 18.5279 84.2334 18.6915C84.2967 18.855 84.4077 18.9958 84.552 19.0955C84.6963 19.1952 84.8673 19.2493 85.0427 19.2506C85.2181 19.2519 85.3899 19.2005 85.5357 19.103L90.3001 15.9268L95.0644 19.103C95.2135 19.202 95.3893 19.2529 95.5681 19.249C95.747 19.2451 95.9204 19.1865 96.0649 19.0811C96.2095 18.9757 96.3183 18.8285 96.3767 18.6595C96.4352 18.4904 96.4404 18.3074 96.3918 18.1353L94.7914 12.5353L98.7604 8.96351C99.0203 8.72901 99.1157 8.36326 99.0037 8.03164Z" fill="#9776D3"/>
</svg>
