<svg width="28" height="28" viewBox="0 0 28 28" fill="none" xmlns="http://www.w3.org/2000/svg">
<g clip-path="url(#clip0_17_58)">
<path d="M26.8333 4.66667V11.6667M26.8333 11.6667H19.8333M26.8333 11.6667L21.42 6.58C20.1661 5.3255 18.6149 4.40908 16.911 3.91624C15.2072 3.4234 13.4063 3.37021 11.6763 3.76164C9.94637 4.15306 8.34376 4.97634 7.01803 6.15466C5.69231 7.33297 4.68669 8.82792 4.09499 10.5M1.16666 23.3333V16.3333M1.16666 16.3333H8.16666M1.16666 16.3333L6.57999 21.42C7.83386 22.6745 9.38509 23.5909 11.0889 24.0838C12.7928 24.5766 14.5937 24.6298 16.3237 24.2384C18.0536 23.8469 19.6562 23.0237 20.9819 21.8453C22.3077 20.667 23.3133 19.1721 23.905 17.5" stroke="#EEE6DB" stroke-width="3" stroke-linecap="round" stroke-linejoin="round"/>
</g>
<defs>
<clipPath id="clip0_17_58">
<rect width="28" height="28" fill="white"/>
</clipPath>
</defs>
</svg>
